<svg xmlns:dc="http://purl.org/dc/elements/1.1/" xmlns:cc="http://creativecommons.org/ns#" xmlns:rdf="http://www.w3.org/1999/02/22-rdf-syntax-ns#" xmlns:svg="http://www.w3.org/2000/svg" xmlns="http://www.w3.org/2000/svg" width="500" height="160" viewBox="0 0 132.29166 42.333333" id="svg851"><defs id="defs845"/><g id="layer2"><rect y="212.33331" x="-.28455811e-5" height="42.333332" width="132.29167" id="rect1436" style="fill:#fff;fill-opacity:1;stroke:none;stroke-width:.63019818;stroke-miterlimit:4;stroke-dasharray:1.26039635,2.52079269;stroke-dashoffset:0" transform="translate(0,-254.66665)"/></g><g transform="translate(0,-254.66665)" id="layer1"><g transform="translate(-9.1166667e-6,42.333337)" id="g5354"><g aria-label="vant" style="font-style:normal;font-weight:400;font-size:6.60553932px;line-height:1.25;font-family:sans-serif;letter-spacing:0;word-spacing:0;fill:#003380;fill-opacity:1;stroke:none;stroke-width:.41284621" id="text12-8"><path d="m43.437546 242.17654h-6.698017l-6.85655-21.00561h6.103519l4.16149 16.60633 4.240756-16.60633h5.786452z" style="fill:#003380;fill-opacity:1;stroke-width:.41284621" id="path5327"/><path d="m68.287489 236.35046q0 1.22863.356699 1.82313.356699.55486 1.149364.8323l-1.188998 3.72552q-1.862762-.15853-3.051759-.87193-1.149364-.7134-1.783495-2.21946-2.060929 3.17066-6.301685 3.17066-3.131026.0-4.993788-1.7835-1.823128-1.82313-1.823128-4.71635.0-3.4481 2.496893-5.27123 2.536528-1.82312 7.173616-1.82312h2.417628v-1.03047q0-1.94203-.871932-2.69506-.832298-.75303-2.853593-.75303-2.298727.0-5.548653 1.10973l-1.307896-3.76516q3.92369-1.54569 7.768114-1.54569 4.280389.0 6.301684 1.86276 2.060929 1.82313 2.060929 5.46939zm-9.234544 2.41763q2.377994.0 3.685891-2.29873v-4.04259h-1.823129q-4.597456.0-4.597456 3.40846.0 1.38716.673765 2.17982.713399.75304 2.060929.75304z" style="fill:#003380;fill-opacity:1;stroke-width:.41284621" id="path5329"/><path d="m85.567508 220.5368q2.774327.0 4.320023 1.70423 1.585329 1.66459 1.585329 4.63709v15.29842h-5.627919v-14.34723q0-1.70423-.594499-2.37799-.594498-.7134-1.704229-.7134-1.188997.0-2.179828.75303-.990831.7134-1.902395 2.17983v14.50576h-5.62792v-21.00561h4.914522l.435965 2.65543q2.615794-3.28956 6.380951-3.28956z" style="fill:#003380;fill-opacity:1;stroke-width:.41284621" id="path5331"/><path d="m109.26814 241.18571q-1.14937.79267-2.6158 1.189-1.42679.43597-2.85359.43597-3.24993-.0396-4.914523-1.86277-1.664596-1.82312-1.664596-5.35048v-10.46318h-3.131025v-3.96332h3.131025v-4.59746l5.627919-.67376v5.27122h4.83526l-.55487 3.96332h-4.28039v10.34428q0 1.50606.51523 2.17983.51524.67376 1.58533.67376 1.0701.0 2.378-.7134z" style="fill:#003380;fill-opacity:1;stroke-width:.41284621" id="path5333"/></g><g aria-label="λ" transform="scale(-1)" style="font-style:normal;font-weight:400;font-size:6.72112131px;line-height:1.25;font-family:sans-serif;letter-spacing:0;word-spacing:0;fill:#2a7fff;fill-opacity:1;stroke:none;stroke-width:.42007008" id="text3734-7"><path d="m-25.826992-251.10025q3.508426.56457 5.686069 1.65339 2.177643 1.0485 3.548751 3.14549 1.411436 2.05666 2.258297 5.68607 1.330782 5.76672 2.33895 9.15416 1.008168 3.34712 2.0566631 5.56509 1.0484949 2.17764 2.500257 4.11333l-5.4844351 1.85503q-2.096989-3.22614-3.347118-6.85555-1.209801-3.66973-2.419603-10.76723l-4.31496 17.62278-5.645741-1.33079 6.573256-20.68761h2.09699q-.564575-1.69372-1.290456-2.66156-.725881-.96784-1.976009-1.53242-1.209802-.6049-3.306792-.92751z" style="font-style:normal;font-variant:normal;font-weight:600;font-stretch:normal;font-size:40.32672501px;font-family:fira sans;-inkscape-font-specification:'Fira Sans Semi-Bold';fill:#2a7fff;stroke-width:.42007008" id="path5324"/></g><g aria-label=".io" style="font-style:normal;font-weight:400;font-size:6.60553932px;line-height:1.25;font-family:sans-serif;letter-spacing:0;word-spacing:0;fill:#003380;fill-opacity:1;stroke:none;stroke-width:.41284621" id="text3744-7"><path d="m112.35601 240.4713q.4756.0.80587.33027.33028.33028.33028.79267.0.46238-.33028.80587-.33027.33028-.80587.33028-.46239.0-.79267-.33028-.33027-.34349-.33027-.80587.0-.46239.33027-.79267.33028-.33027.79267-.33027z" style="font-style:normal;font-variant:normal;font-weight:600;font-stretch:normal;font-size:13.21107864px;font-family:fira sans;-inkscape-font-specification:'Fira Sans Semi-Bold';fill:#003380;stroke-width:.41284621" id="path5336"/><path d="m115.79089 231.91052q.50202.0.81908.31706.33028.30386.33028.77946.0.47559-.33028.79266-.31706.30386-.81908.30386-.50203.0-.81909-.30386-.31707-.31707-.31707-.79266.0-.4756.31707-.77946.31706-.31706.81909-.31706zm.93798 10.60849h-1.87597v-7.00187h1.87597z" style="font-style:normal;font-variant:normal;font-weight:600;font-stretch:normal;font-size:13.21107864px;font-family:fira sans;-inkscape-font-specification:'Fira Sans Semi-Bold';fill:#003380;stroke-width:.41284621" id="path5338"/><path d="m121.51127 235.30576q1.57212.0 2.45726.99083.88515.97762.88515 2.72149.0 1.10973-.40955 1.95524-.39633.83229-1.16257 1.29468-.75303.46239-1.7835.46239-1.57212.0-2.47047-.97762-.88514-.99083-.88514-2.73469.0-1.10973.39633-1.94203.40954-.84551 1.16258-1.3079.76624-.46239 1.80991-.46239zm0 1.40038q-.71339.0-1.07009.56807-.34349.55487-.34349 1.74387.0 1.18899.34349 1.75707.3567.55487 1.05688.55487.70019.0 1.04368-.55487.3567-.56808.3567-1.75707.0-1.189-.34349-1.74387-.34349-.56807-1.04368-.56807z" style="font-style:normal;font-variant:normal;font-weight:600;font-stretch:normal;font-size:13.21107864px;font-family:fira sans;-inkscape-font-specification:'Fira Sans Semi-Bold';fill:#003380;stroke-width:.41284621" id="path5340"/></g></g></g></svg>